<svg xmlns="http://www.w3.org/2000/svg" width="179" height="134" viewBox="0 0 179 134">
    <g fill="none" fill-rule="evenodd">
        <g>
            <g>
                <g transform="translate(-107 -22) translate(-1 -.5) translate(108 23)">
                    <path fill="#B1B2B4" d="M169.035 69.908L174.63 69.898 174.606 84.236 169.011 84.245z" transform="rotate(45 171.82 77.072)"/>
                    <path fill="#AD0513" d="M0 0H174.446V133H0z"/>
                    <path fill="#FFF" fill-rule="nonzero" d="M89.89 119.386v-1.414c-3.783-.27-6.222-.875-7.316-1.818-1.095-.942-1.642-3.232-1.642-6.867v-9.938c0-3.636.601-6.544 1.804-8.726 1.202-2.181 2.763-3.272 4.682-3.272.73 0 1.567.243 2.513.727.946.485 1.986 1.185 3.121 2.101 1.514-.916 2.629-1.825 3.345-2.727.716-.902 1.074-1.838 1.074-2.807 0-.997-.399-1.811-1.196-2.444-.797-.633-1.844-.95-3.142-.95-2.216 0-4.398.842-6.546 2.525-2.149 1.683-4.115 4.1-5.898 7.251l.162-9.856-.568-.404-10.296 4.766v.93l1.743 1.171c.973.646 1.655 1.461 2.047 2.444.392.983.588 2.484.588 4.504l.08 15.028c0 3.447-.364 5.642-1.094 6.584-.73.943-2.175 1.536-4.337 1.778v1.414c1.108-.027 2.344-.047 3.71-.06 1.247-.013 3.11-.02 5.59-.02H80.268c2.313.001 4.115.008 5.406.02 1.513.013 2.918.033 4.215.06zm17.768-51.627c1.216 0 2.223-.397 3.02-1.192.797-.794 1.196-1.797 1.196-3.01 0-1.211-.406-2.221-1.217-3.03-.81-.807-1.81-1.211-3-1.211-1.215 0-2.229.404-3.04 1.212-.81.808-1.216 1.818-1.216 3.03 0 1.265.385 2.282 1.156 3.05.77.767 1.804 1.15 3.1 1.15zm10.337 51.627v-1.414c-2.757-.242-4.56-.774-5.412-1.596-.851-.821-1.277-2.928-1.277-6.322v-21.37c0-.78.027-2.383.081-4.807.027-1.158.054-2.087.081-2.787l-.932-.323-11.107 4.12v.646l1.743 1.414c1.378 1.078 2.33 2.114 2.858 3.11.527.997.79 2.56.79 4.687v13.816c0 4.309-.439 6.914-1.317 7.816-.879.902-2.737 1.434-5.574 1.596v1.414c1.243-.027 2.588-.047 4.033-.06 1.227-.012 2.935-.019 5.125-.02h2.389c2.171.001 3.822.008 4.951.02 1.325.013 2.514.033 3.568.06zm22.631.485c5.973 0 10.939-1.859 14.898-5.575 3.959-3.717 5.938-8.39 5.938-14.018 0-5.925-1.891-10.658-5.675-14.2-3.783-3.54-8.837-5.311-15.16-5.311-5.973 0-10.939 1.851-14.898 5.554-3.959 3.703-5.939 8.356-5.939 13.957 0 5.898 1.906 10.638 5.716 14.22 3.81 3.582 8.85 5.373 15.12 5.373zm0-1.9c-3.756 0-6.85-1.642-9.283-4.927-2.432-3.286-3.648-7.541-3.648-12.766 0-5.467 1.176-9.796 3.527-12.987 2.35-3.192 5.486-4.787 9.404-4.787 3.757 0 6.858 1.663 9.304 4.989 2.445 3.326 3.668 7.588 3.668 12.785 0 5.44-1.175 9.75-3.527 12.927-2.35 3.178-5.499 4.767-9.445 4.767z"/>
                    <path fill="#000" d="M118.399 55.155H178.649V74.005H118.399z"/>
                    <path fill="#FFF" fill-rule="nonzero" d="M125.05 59.78c.21 0 .384-.073.519-.22.134-.146.202-.332.202-.556 0-.22-.068-.401-.202-.543-.135-.141-.308-.212-.519-.212-.216 0-.4.077-.552.23-.152.154-.228.339-.228.554 0 .23.071.412.214.546.142.134.33.202.566.202zm-2.515 9.47c.402 0 .85-.24 1.346-.718.495-.48 1.066-1.224 1.713-2.236l-.169-.154c-.397.46-.79.858-1.177 1.195-.387.337-.772.616-1.154.836l-.06-.044 1.611-4.156c.118-.303.21-.572.276-.806.066-.235.1-.408.1-.52 0-.181-.048-.322-.144-.422-.095-.1-.23-.15-.4-.15-.403 0-.859.237-1.369.71-.51.475-.993 1.12-1.449 1.936l.17.131c.358-.425.697-.781 1.018-1.07.321-.288.624-.505.909-.652l.103.03-1.368 3.51c-.206.528-.351.93-.434 1.21-.084.278-.125.495-.125.652 0 .225.054.4.161.527.108.128.255.191.442.191zm8.296.227c1.839-1.475 3.14-2.673 3.902-3.591.762-.919 1.143-1.732 1.143-2.44 0-.416-.092-.748-.276-.998-.183-.249-.427-.373-.731-.373-.206 0-.472.084-.798.252-.326.169-.73.432-1.21.788l.125.206c.235-.162.444-.279.625-.352.181-.074.353-.11.515-.11.2 0 .366.094.496.282.13.188.195.429.195.722 0 .674-.28 1.41-.838 2.206-.56.797-1.302 1.498-2.229 2.104.226-.948.395-1.791.508-2.529.112-.738.169-1.375.169-1.913 0-.528-.066-.936-.199-1.224-.132-.288-.318-.432-.559-.432-.274 0-.597.108-.967.326-.37.217-.8.55-1.29 1l.124.22.074-.044c.559-.357.939-.535 1.14-.535.21 0 .364.082.46.246.095.163.143.421.143.773 0 .562-.08 1.292-.239 2.191-.16.9-.391 1.904-.695 3.013l.412.212zm10.4-7.835c.421 0 .775-.148 1.062-.443.287-.296.43-.664.43-1.103 0-.41-.14-.75-.419-1.02-.28-.268-.632-.402-1.059-.402-.446 0-.819.146-1.118.44-.299.293-.448.662-.448 1.106 0 .425.142.769.426 1.03.285.261.66.392 1.126.392zm-.074-.388c-.275 0-.501-.098-.68-.293-.18-.196-.269-.443-.269-.74 0-.333.095-.61.283-.829.19-.22.426-.33.71-.33.294 0 .533.097.717.29.184.193.276.446.276.758 0 .347-.094.625-.283.832-.189.208-.44.312-.754.312zm-.846 7.952c.388 0 .897-.275 1.53-.824.633-.55 1.243-1.27 1.831-2.159l-.176-.169c-.461.523-.899.956-1.313 1.298-.414.342-.771.564-1.07.667l-.044-.044 1.684-5.204.037-.11c.068-.186.103-.34.103-.462 0-.083-.037-.156-.11-.22-.074-.063-.157-.095-.25-.095-.084 0-.16.034-.229.103-.068.068-.154.202-.257.403l-.257.542c-.398-.269-.74-.473-1.026-.612-.287-.14-.512-.209-.673-.209-.466 0-.947.182-1.442.546-.495.364-.895.842-1.199 1.433-.181.357-.364.79-.548 1.297-.184.509-.366 1.102-.548 1.782-.093.346-.164.642-.213.886-.049.245-.074.423-.074.535 0 .176.07.323.206.44.138.117.304.176.5.176.33 0 .89-.415 1.685-1.246.794-.83 1.68-1.945 2.655-3.342l.059.03-1.177 3.356c-.088.25-.147.43-.177.542-.029.113-.044.203-.044.272 0 .117.05.21.147.282.098.07.228.106.39.106zm-2.905-1.019l-.147-.102c.392-1.588.777-2.856 1.155-3.804.377-.948.679-1.422.904-1.422.162 0 .407.082.736.245.328.164.7.393 1.118.686-.682 1.1-1.347 2.026-1.997 2.781-.65.755-1.24 1.294-1.769 1.616zm7.156 1.034c.25 0 .645-.533 1.184-1.598.353-.694.653-1.256.898-1.686.53-.943.95-1.634 1.265-2.074.314-.44.54-.66.676-.66.06 0 .11.028.151.085.042.056.063.128.063.216 0 .102-.019.209-.056.319-.036.11-.089.218-.158.326l.103.154c.388-.127.688-.32.901-.58.214-.258.32-.556.32-.893 0-.22-.057-.397-.173-.532-.115-.134-.263-.201-.445-.201-.421 0-.913.388-1.474 1.165-.562.777-1.38 2.238-2.453 4.383l-.096-.044 1.508-4.654c.025-.073.043-.138.055-.194.012-.057.019-.107.019-.15 0-.157-.071-.28-.214-.37-.142-.091-.336-.136-.58-.136-.467 0-.908.216-1.325.648-.416.433-.77 1.04-1.059 1.822l.199.139c.382-.533.733-.952 1.052-1.257.318-.306.566-.458.742-.458.03 0 .06.02.089.062.03.042.044.087.044.136 0 .02-.006.053-.019.102-.012.05-.045.154-.099.315l-1.331 4.288c-.064.21-.112.389-.143.535-.032.147-.048.262-.048.345 0 .151.033.263.1.337.065.073.167.11.304.11zm9.18 0c.386 0 .883-.26 1.488-.777.606-.518 1.198-1.21 1.777-2.074l-.184-.132c-.417.464-.813.852-1.188 1.165-.375.313-.727.545-1.055.696l-.103-.08 2.662-9.287c.005-.01.01-.024.015-.044.073-.23.11-.395.11-.498 0-.044-.023-.085-.07-.125-.046-.039-.1-.058-.158-.058-.098 0-.3.068-.607.205-.306.137-.68.325-1.121.564l-.074.037c-.225.122-.338.23-.338.323 0 .039.016.078.048.117.031.039.082.08.15.124l.677.418-.875 2.932-.302-.169c-.323-.18-.561-.3-.713-.359-.152-.058-.285-.088-.397-.088-.466 0-.947.182-1.442.546-.495.364-.895.842-1.199 1.433-.176.347-.355.775-.537 1.283-.181.508-.367 1.107-.559 1.796-.103.356-.179.652-.228.886-.049.235-.073.413-.073.535 0 .176.072.325.217.447.144.123.312.184.504.184.323 0 .88-.41 1.67-1.232.789-.82 1.63-1.886 2.522-3.195l.088.058-.905 2.837c-.117.361-.192.607-.224.736-.032.13-.048.231-.048.305 0 .151.043.27.13.359.085.088.199.132.341.132zm-2.943-1.034l-.147-.102c.363-1.53.742-2.783 1.136-3.76.395-.978.703-1.466.923-1.466.162 0 .407.082.736.245.328.164.701.393 1.118.686-.687 1.1-1.357 2.03-2.012 2.792-.654.762-1.239 1.297-1.754 1.605zm7.326 1.034c.49 0 1.078-.238 1.765-.715.686-.476 1.377-1.132 2.074-1.968l-.214-.198c-.598.567-1.189 1.031-1.772 1.393-.584.361-.99.542-1.221.542-.113 0-.2-.043-.261-.128-.061-.086-.092-.211-.092-.377 0-.186.027-.438.08-.755.055-.318.128-.662.222-1.034l2.427-1.576c.46-.307.792-.56.993-.755.2-.195.301-.364.301-.505 0-.235-.15-.474-.452-.719-.302-.244-.602-.366-.901-.366-.216 0-.467.07-.754.209-.287.14-.62.35-.997.634-.22.166-.4.316-.537.45-.137.135-.237.26-.301.378-.368.63-.668 1.365-.901 2.203-.233.837-.35 1.589-.35 2.253 0 .303.086.551.258.744.172.193.382.29.633.29zm.735-3.768l.11-.366c.461-1.505.9-2.257 1.317-2.257.22 0 .429.079.625.238.196.159.294.319.294.48 0 .122-.035.233-.106.333-.072.1-.195.21-.372.326l-1.868 1.246zm8.51 3.753c.367 0 .864-.272 1.489-.817.625-.545 1.215-1.247 1.769-2.107l-.17-.118c-.362.406-.733.768-1.11 1.085-.378.318-.765.596-1.162.836l-.044-.015 1.206-3.093c.162-.425.287-.8.375-1.125.088-.325.132-.58.132-.766 0-.313-.076-.56-.228-.74-.152-.181-.362-.271-.632-.271-.5 0-1.1.4-1.798 1.202-.699.801-1.644 2.194-2.836 4.177l-.044-.029c.603-1.461 1.06-2.596 1.368-3.404.31-.81.464-1.282.464-1.419 0-.141-.083-.265-.247-.37-.164-.105-.366-.157-.607-.157-.514 0-.995.23-1.441.689-.446.459-.814 1.106-1.103 1.942l.176.088c.412-.577.78-1.015 1.103-1.316.324-.3.589-.45.795-.45.039 0 .075.003.106.01.032.008.056.016.07.026l-1.588 4.178c-.187.479-.31.82-.368 1.026-.059.205-.088.369-.088.491 0 .142.031.252.095.33.064.078.152.117.265.117.309 0 .792-.555 1.449-1.664.377-.64.694-1.155.949-1.546.784-1.207 1.375-2.041 1.772-2.503.397-.462.711-.693.942-.693.098 0 .172.03.224.088.051.059.077.144.077.257 0 .083-.02.201-.062.355-.042.154-.097.326-.166.517l-1.309 3.555-.044.124c-.182.508-.272.838-.272.99 0 .18.039.312.117.395.079.084.204.125.376.125z"/>
                    <ellipse cx="107.715" cy="63.707" fill="#000" rx="5.079" ry="5.062"/>
                    <path fill="#FFF" fill-rule="nonzero" d="M66.35 119.386v-2.53c-3.77-.481-6.925-1.084-9.464-1.806-2.538-.723-4.677-1.639-6.418-2.747-2.03-1.349-3.457-3.42-4.279-6.215-.821-2.794-1.232-7.396-1.232-13.804v-72.92c11.216.288 19.762 2.818 25.636 7.588 5.874 4.77 8.811 11.563 8.811 20.38 0 6.938-1.946 12.443-5.838 16.514-3.892 4.071-9.899 6.902-18.021 8.492l.725 2.529c12.57-1.494 22.095-4.938 28.574-10.335 6.478-5.396 9.717-12.623 9.717-21.68 0-9.059-3.698-15.816-11.095-20.273-7.398-4.457-18.638-6.685-33.723-6.685h-.05c-.639.004-4.792.064-12.46.18-7.905.121-15.628.181-23.17.181v2.602c6.816.627 11.397 2.313 13.742 5.06 2.345 2.745 3.518 8.672 3.518 17.778v50.868c-.009 7.12-.335 11.894-.98 14.32-.652 2.457-1.825 4.312-3.517 5.565-1.595 1.204-3.541 2.168-5.838 2.89-2.296.723-4.992 1.23-8.086 1.518v2.53c7.252-.145 12.68-.229 16.281-.253 3.602-.024 6.974-.036 10.117-.036 3.19 0 6.624.012 10.298.036 3.674.024 9.259.108 16.753.253z"/>
                </g>
            </g>
        </g>
    </g>
</svg>
