<svg xmlns="http://www.w3.org/2000/svg" width="160" height="80">
    <path d="M10.3 58.9c-3.3-2.4-5-4.1-6.6-6.6C1.3 48.6 0 44.2 0 39.8 0 27.2 10.2 17 22.8 17c12.6 0 22.8 10.2 22.8 22.8 0 5.2-1.8 10.4-4.9 14.2-1.3 1.6-2.4 2.6-5.4 4.8V45.5h2.3v9.1c1.7-2 2.5-3.2 3.3-4.6 1.7-3 2.6-6.7 2.6-10.2 0-11.5-9.3-20.9-20.7-20.9-11.5 0-20.7 9.4-20.7 21C2.1 45.3 4 50 8 54.6v-9.1h2.3v13.4zm4.5 2.3c-.4-.1-1.4-.6-2.3-1V45.5h2.3v15.7zM28.5 29l-5.7-4.4-5.7 4.4-1.2-1.6 7-5.4 7 5.4-1.4 1.6zm-9.2 33.4c-.8-.1-.9-.1-1.2-.2-.2 0-.3 0-1.1-.2V30.7h2.3v31.7zm4.6.1h-2.2V30.7H24v31.8h-.1zm4.6-.7c-.7.2-1.3.4-2.3.6V30.7h2.3v31.1zm4.6-1.7c-.7.3-1.2.5-2.3 1.1V45.5h2.3v14.6zM62.3 27c2-1 2.9-2.2 2.9-3.8 0-2.4-1.8-4-4.5-4-1.2 0-2.4.1-3.6.1h-2.9v1l1.6.3v14l-1.6.3v1h6.6c1.9 0 3-.3 3.9-1.1.9-.8 1.4-2 1.4-3.3 0-2.3-1.4-3.9-3.8-4.5zm-4.1-6.5c.7-.2 1-.3 1.5-.3 1.8 0 2.7 1.1 2.7 3 0 2.4-.8 3.4-3 3.4h-1.2v-6.1zm1.5 14.4c-.7 0-1-.1-1.5-.4v-6.7h1.1c2.8 0 4.1 1.1 4.1 3.5-.1 2.2-1.4 3.6-3.7 3.6zM73 23.8c-2.9 0-4.8 2.6-4.8 6.3 0 3.5 1.9 5.9 4.6 5.9 2.9 0 4.8-2.5 4.8-6.3.1-3.5-1.8-5.9-4.6-5.9zm-.1 11.1c-1.3 0-2.1-1.7-2.1-4.8 0-3.3.8-5.1 2.2-5.1 1.3 0 2.2 1.8 2.2 4.6-.1 3.2-1 5.3-2.3 5.3zm11.9-.5c-1.7 0-2.5-1.3-2.7-4.6h6.1c0-1.5-.1-2.2-.3-2.8-.5-2-1.8-3.1-3.7-3.1-2.8 0-4.5 2.4-4.5 6.3 0 3.7 1.6 5.9 4.5 5.9 1.9 0 2.8-.7 4-2.8l-1.1-.4c-.8 1-1.4 1.5-2.3 1.5zM84 25c1.1 0 1.6 1 1.7 3.6h-3.6c.2-2.5.8-3.6 1.9-3.6zm11.8 10.8v-1l1.2-.2v-6.5c0-1.7-.3-2.4-1.3-2.4-.8 0-1.3.2-2.3 1.1v7.7l1.2.2v1h-4.8v-1l1.4-.3V19.9l-1.3-.3v-.8l3-.6h.6v7.2c1.4-1.1 2.1-1.4 3.2-1.4 1.9 0 2.8 1.1 2.8 3.5v7l1.2.2v1l-4.9.1zm14-10.3c0 .5-.1.7-.9 1.4l-1.2-.7c-1 .6-1.5 1.3-1.5 2.2v6.1l1.7.2v1h-5.3v-1l1.3-.3v-8.7l-1.3-.2v-.8l2.9-.8h.7v2.2c1-1.6 1.5-2.1 2.4-2.1.5.1 1.2.7 1.2 1.5m1.4 10.3v-.9l1.2-.3v-8.7l-1.2-.3v-.8l3-.7h.6v10.5l1.3.2v1zm3.8-16.1c0 .8-.7 1.5-1.5 1.5-.9 0-1.6-.7-1.6-1.6 0-.9.7-1.5 1.6-1.5.8.1 1.5.8 1.5 1.6zm9.1 16.1v-1l1.2-.2v-6.9c0-1.5-.4-2.1-1.3-2.1-.7 0-1.3.3-2.3 1.1v7.8l1.2.3v1H118v-1l1.4-.3v-8.7l-1.4-.2v-1l3-.8h.7v1.4c1.4-1.1 2.1-1.4 3.1-1.4 1.9 0 2.9 1.1 2.9 3.4v7.2l1.2.3v1c0 .1-4.8.1-4.8.1zm16.3-10.3v-1.3h-2.1c-.4 0-.8.1-1.2 0-.7-.1-1.4-.3-2.1-.3-2.3 0-4 1.7-4 4 0 1.5.5 2.4 2 3.3-1.5 1-2.2 1.7-2.2 2.5 0 .7.4 1.2 1.3 1.5-1.3.8-1.9 1.5-1.9 2.5 0 1.5 1.7 2.4 4.3 2.4 3.5 0 5.7-1.6 5.7-4.2 0-1.8-1.1-2.6-3.3-2.7l-3.1-.1c-.5 0-.8-.2-.8-.5 0-.2.3-.6.9-1 .4.1.8.2 1.3.2 2.3 0 4-1.7 4-3.8 0-.9-.2-1.4-.9-2.4h2.1v-.1zm-7 9.9c4.8.3 5.1.4 5.1 1.4 0 1.2-1.4 2-3.5 2-1.6 0-2.5-.6-2.5-1.7 0-.7.3-1.1.9-1.7zm1.7-4.8c-1.1 0-1.6-.9-1.6-2.9s.5-2.9 1.5-2.9c1.2 0 1.7 1 1.7 3.1.1 1.9-.5 2.7-1.6 2.7zm12 3.8c-1.7 0-2.5-1.3-2.7-4.6h6.1c0-1.5-.1-2.2-.3-2.8-.5-2-1.8-3.1-3.7-3.1-2.8 0-4.5 2.4-4.5 6.3 0 3.7 1.6 5.9 4.5 5.9 1.9 0 2.8-.7 4-2.8l-1.1-.4c-.8 1-1.4 1.5-2.3 1.5zm-.8-9.4c1.1 0 1.6 1 1.7 3.6h-3.6c.2-2.5.8-3.6 1.9-3.6zm10 1.2c1-1.6 1.5-2.1 2.4-2.1.8 0 1.4.6 1.4 1.4 0 .5-.1.7-.9 1.4l-1.2-.7c-1 .6-1.5 1.3-1.5 2.2v6.1l1.7.2v1h-5.3v-1l1.3-.3v-8.7l-1.3-.2v-.8l2.9-.8h.7l-.2 2.3zm-102 34.1v-.9l1.5-.3v-14l-1.5-.3v-1h5.5v1l-1.4.3V59l1.3.3v1zm13.3 0v-1l1.2-.2v-6.9c0-1.5-.4-2.1-1.3-2.1-.7 0-1.3.3-2.3 1.1V59l1.2.3v1h-4.9v-1l1.4-.3v-8.7l-1.4-.2v-1l3-.8h.7v1.4c1.4-1.1 2.1-1.4 3.1-1.4 1.9 0 2.9 1.1 2.9 3.4V59l1.2.3v1h-4.8zM82 50.1c.7 1 .9 1.5.9 2.4 0 2.2-1.7 3.8-4 3.8-.5 0-.9 0-1.3-.2-.6.4-.9.8-.9 1.1 0 .2.3.4.8.5l3.1.1c2.3.1 3.3 1 3.3 2.7 0 2.5-2.3 4.2-5.7 4.2-2.6 0-4.3-1-4.3-2.4 0-1 .5-1.6 1.9-2.5-1-.4-1.3-.8-1.3-1.5 0-.8.6-1.6 2.2-2.5-1.4-.9-2-1.8-2-3.3 0-2.3 1.7-4 4-4 .7 0 1.4.2 2.1.3.4.1.8 0 1.2 0h2.1v1.4l-2.1-.1zm-5.9 11.6c0 1.1 1 1.7 2.5 1.7 2 0 3.5-.8 3.5-2 0-1.1-.3-1.2-5.1-1.5-.6.6-.9 1.1-.9 1.8zm1-9.4c0 2 .5 2.9 1.6 2.9s1.6-.9 1.6-2.7c0-2.1-.6-3.1-1.7-3.1-1 0-1.5.9-1.5 2.9zm13.5 6.6c-1.7 0-2.5-1.3-2.7-4.6H94c0-1.5-.1-2.2-.3-2.8-.5-2-1.8-3.1-3.7-3.1-2.8 0-4.5 2.4-4.5 6.3 0 3.7 1.6 5.9 4.5 5.9 1.9 0 2.8-.7 4-2.8l-1.1-.4c-.8 1.1-1.4 1.5-2.3 1.5zm-.8-9.4c1.1 0 1.6 1 1.7 3.6h-3.6c.2-2.5.8-3.6 1.9-3.6zm5.8 10.8v-.9l1.4-.3V44.3l-1.3-.1v-.9l3-.6h.6V59l1.3.3v1zm12.9 0v-1l1.2-.2v-6.5c0-1.7-.3-2.4-1.3-2.4-.8 0-1.3.2-2.3 1.1V59l1.2.2v1h-4.8v-1l1.4-.3V44.5l-1.3-.3v-.8l3-.6h.6V50c1.4-1.1 2.1-1.4 3.2-1.4 1.9 0 2.8 1.1 2.8 3.5v7l1.2.2v1h-4.9zm11.8-1.4c-1.7 0-2.5-1.3-2.7-4.6h6.1c0-1.5-.1-2.2-.3-2.8-.5-2-1.8-3.1-3.7-3.1-2.8 0-4.5 2.4-4.5 6.3 0 3.7 1.6 5.9 4.5 5.9 1.9 0 2.8-.7 4-2.8l-1.1-.4c-.7 1.1-1.4 1.5-2.3 1.5zm-.8-9.4c1.1 0 1.6 1 1.7 3.6h-3.6c.2-2.5.8-3.6 1.9-3.6zm6.3 10.8v-.9l1.2-.3v-8.6l-1.2-.3v-.8l3-.8h.6v10.5l1.3.2v1zm3.8-16c0 .8-.7 1.5-1.5 1.5-.9 0-1.6-.7-1.6-1.6 0-.9.7-1.5 1.6-1.5.8 0 1.5.7 1.5 1.6zm15.2 16v-1l1.2-.3v-6.9c0-1.3-.5-2-1.4-2-.7 0-1.2.2-2.2 1.2V59l1.2.3v1h-4.8v-1l1.3-.3v-6.9c0-1.3-.5-2-1.5-2-.8 0-1.3.3-2.2 1.1V59l1.1.3v1h-4.8v-1l1.4-.3v-8.8l-1.4-.2v-.8l3-.8h.6V50c1.2-1 2.1-1.4 3.2-1.4 1.2 0 2.1.5 2.7 1.5 1.2-1.2 2.1-1.6 3.3-1.6 2 0 3 1.1 3 3.1V59l1.3.3v1h-5z" fill="#fff"/>
</svg>