<svg id="Layer_1" data-name="Layer 1" xmlns="http://www.w3.org/2000/svg" viewBox="0 0 153.01199 32.65">
  <defs>
    <style>
      .cls-1 {
        fill: #6A2134;
      }
    </style>
  </defs>
  <path id="Group_36" data-name="Group 36" class="cls-1" d="M0,20.086v-.835H5.179V20.42c0,1.805,2.105,2.907,4.478,2.907,1.737,0,3.775-.768,3.775-2.673,0-4.444-12.931-1.8-12.931-10.324,0-3.844,2.606-7.117,8.788-7.117,6.048,0,8.955,3.006,8.955,7.217v1.1H13.065V10.294c0-1.437-1.7-2.406-3.843-2.406-1.938,0-3.508.769-3.508,2.306,0,3.508,12.931,1.637,12.931,10.224,0,4.244-3.208,7.519-9.122,7.519C3.575,27.939,0,24.697,0,20.086Zm29.733,3.175c3.141,0,4.511-1.237,4.511-3.142V11.031c0-1.9-1.37-3.141-4.477-3.141-3.141,0-4.545,1.237-4.545,3.141v9.088C25.222,22.024,26.626,23.261,29.733,23.261Zm8.354,9.389L29.9,27.939h-.133c-6.082,0-9.724-3.008-9.724-7.585V10.797c0-4.578,3.609-7.584,9.69-7.584s9.69,3.006,9.69,7.584v9.557a6.811,6.811,0,0,1-2.94,5.814l4.009,2.305Zm3.772-12.296V3.714h5.179v16.4c0,1.905,1.471,3.142,4.211,3.142s4.176-1.237,4.176-3.142V3.714h5.18v16.64c0,4.577-3.509,7.585-9.323,7.585C45.435,27.939,41.859,24.931,41.859,20.354ZM71.156,9.127l-2.64,9.456h5.28Zm3.976,14.134H67.18l-1.237,4.176H60.864L67.48,3.714h7.385l6.616,23.723h-5.113Zm12.592-9.055H92.87c1.4,0,2.272-.7,2.272-1.938V10.33c0-1.236-.869-1.939-2.239-1.939h-5.179ZM91.9,18.883H87.724v8.554H82.545V3.714h9.991c4.678,0,7.785,2.673,7.785,6.85v1.47a6.29994,6.29994,0,0,1-3.342,5.814l3.642,9.589H95.242ZM108.44,8.391v5.18h8.788v4.677H108.44v4.511h10.124v4.678h-15.3V3.714h15.3V8.391Zm29.83,15.693,14.221,1.6-.524,4.656h1.045V14.24C149.248,19.416,139.862,20.892,138.27,24.084ZM153.012,3.105V.005h-4.441A10.0588,10.0588,0,0,1,153.012,3.105ZM130.485,26.148c1.124-9.972,16.727-11.287,17.342-16.751l.1-.91c.205-1.821-1.2-2.989-3.8-3.282-2.514-.284-4.227.884-4.5,3.313l-.142,1.258-6.72-.757.108-.955A9.6,9.6,0,0,1,138.53491,0H122.67V30.341h16.582l-9.123-1.028Z"/>
</svg>
